<svg width="164" height="166" viewBox="0 0 164 166" fill="none" xmlns="http://www.w3.org/2000/svg">
<path d="M20.1707 69.1502C18.6447 69.1579 17.4014 67.927 17.3938 66.4009C17.3862 64.8749 18.6171 63.6317 20.1431 63.624H20.1707C21.6967 63.624 22.9338 64.8611 22.9338 66.3871C22.9338 67.9132 21.6967 69.1502 20.1707 69.1502Z" fill="#5A98D0"/>
<path d="M115.177 30.7374C114.76 30.87 104.998 34.2438 104.998 44.4092C104.998 45.9353 106.235 47.1724 107.761 47.1724C109.287 47.1724 110.524 45.9353 110.524 44.4092C110.75 40.5557 113.285 37.2218 116.938 35.9735C118.341 35.457 119.079 33.9176 118.603 32.4999C118.126 31.0823 116.608 30.3012 115.177 30.7374Z" fill="#5A98D0"/>
<path d="M150.59 27.8306C157.457 27.8306 163.024 22.2638 163.024 15.3966C163.024 8.52954 157.457 2.96265 150.59 2.96265C143.722 2.96265 138.156 8.52954 138.156 15.3966C138.169 17.4563 138.702 19.4794 139.703 21.2793L134.84 25.435C126.029 17.9606 113.226 17.5539 103.959 24.4541L100.201 21.1108C101.517 18.9768 102.221 16.5221 102.235 14.0151C102.281 7.57427 97.9002 1.94388 91.6459 0.404585C85.3915 -1.13471 78.8982 1.81945 75.9494 7.54576C73.0005 13.2721 74.367 20.2737 79.2525 24.4711C84.1381 28.6684 91.2657 28.9643 96.4823 25.1863L99.9251 28.2479C93.6185 35.6234 92.1782 45.9937 96.2364 54.8086C100.294 63.6236 109.11 69.2727 118.814 69.2773C121.204 69.2758 123.581 68.9258 125.871 68.2384L129.355 73.0213C125.436 80.109 126.746 88.9426 132.553 94.5883C138.359 100.234 147.226 101.295 154.201 97.1789C161.176 93.0627 164.533 84.7877 162.398 76.9754C160.262 69.1632 153.162 63.7467 145.063 63.7511C144.449 63.7516 143.835 63.783 143.223 63.845L139.316 58.4735C142.152 54.331 143.674 49.4297 143.682 44.4093C143.68 39.0105 141.91 33.7608 138.642 29.4636L143.339 25.4488C145.444 26.9889 147.982 27.8228 150.59 27.8306ZM143.682 15.3966C143.682 11.5816 146.774 8.48887 150.59 8.48887C154.405 8.48887 157.497 11.5816 157.497 15.3966C157.497 19.2117 154.405 22.3044 150.59 22.3044C149.605 22.3014 148.634 22.0855 147.741 21.6717L151.007 18.8754C152.098 17.8673 152.197 16.1769 151.23 15.0486C150.264 13.9203 148.579 13.7579 147.415 14.681L144.06 17.5491C143.819 16.8568 143.691 16.1299 143.682 15.3966ZM88.4195 22.3044C83.8415 22.3044 80.1302 18.5932 80.1302 14.0151C80.1302 9.43702 83.8415 5.72576 88.4195 5.72576C92.9976 5.72576 96.7089 9.43702 96.7089 14.0151C96.707 15.1676 96.4622 16.3069 95.9905 17.3585L93.0174 14.7142C92.2858 14.0192 91.2337 13.7783 90.2727 14.0856C89.3116 14.393 88.5945 15.1997 88.402 16.1902C88.2094 17.1806 88.5721 18.1972 89.3479 18.8422L92.1801 21.3594C91.0203 21.9709 89.7306 22.295 88.4195 22.3044ZM99.472 44.4093C99.4456 36.3212 104.455 29.0707 112.029 26.2335C119.603 23.3963 128.143 25.5715 133.437 31.6865C138.731 37.8015 139.661 46.5648 135.768 53.6547C132.97 50.2932 128.042 49.6842 124.509 52.2633C120.977 54.8425 120.056 59.7222 122.406 63.4112C121.222 63.6382 120.019 63.752 118.814 63.7511C108.137 63.7374 99.4857 55.0858 99.472 44.4093ZM157.497 81.7113C157.497 88.5784 151.93 94.1453 145.063 94.1453C138.196 94.1453 132.629 88.5784 132.629 81.7113C132.629 74.8442 138.196 69.2773 145.063 69.2773C151.927 69.2849 157.49 74.8474 157.497 81.7113ZM132.906 68.5202L127.048 60.4685C126.194 59.2267 126.483 57.5313 127.7 56.6422C128.916 55.7531 130.619 55.9928 131.543 57.1832L137.537 65.4255C135.841 66.21 134.279 67.2541 132.906 68.5202Z" fill="#5A98D0"/>
<path d="M110.524 99.6715H104.028C104.659 98.3802 104.99 96.9637 104.998 95.5268C104.998 90.1857 100.668 85.8559 95.3273 85.8559C89.9862 85.8559 85.6564 90.1857 85.6564 95.5268C85.6645 96.9637 85.996 98.3802 86.6263 99.6715H80.1302C75.7992 99.6705 72.2004 103.01 71.8784 107.329C71.5564 111.648 74.6201 115.485 78.9034 116.126C71.0478 123.784 59.669 126.603 49.1467 123.498C38.6244 120.394 30.5989 111.848 28.1594 101.152C25.7199 90.4561 29.2466 79.2763 37.3821 71.916C37.8159 71.9575 38.2387 72.0487 38.6835 72.0487C41.6233 72.041 44.4825 71.0866 46.8375 69.327L50.2195 72.7118C49.7093 74.6085 50.2484 76.6334 51.6343 78.0253L55.5385 81.924C57.6965 84.0814 61.1946 84.0814 63.3526 81.924L65.3061 79.9705L71.1694 85.8311C73.3274 87.9884 76.8255 87.9884 78.9835 85.8311L86.7976 78.017C88.9549 75.859 88.9549 72.3609 86.7976 70.2029L80.937 64.3396L82.8933 62.3861C85.0507 60.2281 85.0507 56.73 82.8933 54.572L78.9863 50.665C77.5907 49.2776 75.5609 48.7404 73.6618 49.2558L34.0332 9.59408C31.8556 7.48455 28.3929 7.49681 26.2302 9.62171L18.4161 1.81869C16.2581 -0.338651 12.76 -0.338651 10.6021 1.81869L2.78798 9.63276C0.630642 11.7908 0.630642 15.2889 2.78798 17.4468L10.5993 25.2609C8.44931 27.4176 8.44931 30.9072 10.5993 33.0639L27.5979 50.0626C25.2843 53.1578 24.3897 57.088 25.1359 60.8796C25.8821 64.6712 28.1993 67.9694 31.5133 69.957C22.5932 79.6448 19.7007 93.4424 23.9791 105.897C28.2574 118.352 39.018 127.459 52.0084 129.62C64.9988 131.782 78.1287 126.649 86.2091 116.25H96.2668C88.3717 129.909 73.8016 138.331 58.0253 138.355C50.7483 138.291 43.5918 136.491 37.15 133.105C30.7634 129.614 25.303 124.649 21.2235 118.621C17.2316 112.539 14.7671 105.584 14.0394 98.3452C13.3461 91.0967 14.4508 83.789 17.2556 77.0692C17.7982 75.6891 17.1866 74.1238 15.852 73.4772C15.1718 73.1498 14.3857 73.1217 13.6839 73.3999C12.9822 73.6781 12.4288 74.2371 12.1577 74.9417C9.00124 82.5016 7.75797 90.7233 8.53801 98.8785C9.35603 107.027 12.1347 114.856 16.6367 121.696C21.2186 128.483 27.3603 134.074 34.5472 137.999C34.7959 138.128 35.0528 138.242 35.3043 138.369H22.1049C12.9525 138.378 5.53536 145.795 5.52622 154.948V160.474H2.76311C1.23709 160.474 0 161.711 0 163.237C0 164.763 1.23709 166 2.76311 166H113.288C114.814 166 116.051 164.763 116.051 163.237C116.051 161.711 114.814 160.474 113.288 160.474H110.524V154.934C110.515 145.781 103.098 138.364 93.9458 138.355H80.7215C90.1746 133.511 97.8253 125.763 102.55 116.25H110.524C115.102 116.25 118.814 112.539 118.814 107.961C118.814 103.383 115.102 99.6715 110.524 99.6715ZM82.8933 74.11L75.0792 81.924L69.2159 76.0635L77.0328 68.2466L82.8933 74.11ZM78.989 58.4763L75.0792 62.3861L63.3554 74.11L59.4483 78.017L55.5385 74.11L75.0765 54.572L78.989 58.4763ZM6.69502 13.5398L14.5091 5.72573L22.3232 13.537L14.5063 21.3539L6.69502 13.5398ZM16.4516 27.2255L19.7176 23.9623L30.1538 13.5343L69.2049 52.6157L53.5767 68.2439L50.5373 65.2044C50.903 64.6094 51.2217 63.9867 51.4906 63.3421V63.3062C52.147 61.692 52.4893 59.9674 52.4991 58.2248C52.49 50.5985 46.3099 44.4184 38.6835 44.4093C36.2219 44.4226 33.8095 45.1003 31.7012 46.3711L14.498 29.1762L16.4516 27.2255ZM38.6835 49.9355C43.2616 49.9355 46.9729 53.6468 46.9729 58.2248C46.9677 59.223 46.7804 60.2118 46.4203 61.1427C46.3999 61.1998 46.3823 61.2579 46.3678 61.3167C44.8117 65.1874 40.6216 67.2986 36.5849 66.2459C32.5482 65.1932 29.9227 61.3046 30.4551 57.167C30.9875 53.0293 34.5118 49.932 38.6835 49.9355ZM93.9458 143.881C100.05 143.881 104.998 148.83 104.998 154.934V160.46H11.0524V154.934C11.0524 148.83 16.0008 143.881 22.1049 143.881H93.9458ZM91.1826 95.5268C91.1826 93.2378 93.0383 91.3822 95.3273 91.3822C97.6164 91.3822 99.472 93.2378 99.472 95.5268C99.472 97.8159 97.6164 99.6715 95.3273 99.6715C93.0383 99.6715 91.1826 97.8159 91.1826 95.5268ZM110.524 110.724H80.1302C78.6042 110.724 77.3671 109.487 77.3671 107.961C77.3671 106.435 78.6042 105.198 80.1302 105.198H110.524C112.05 105.198 113.288 106.435 113.288 107.961C113.288 109.487 112.05 110.724 110.524 110.724Z" fill="#5A98D0"/>
</svg>
