<svg width="150" height="166" viewBox="0 0 150 166" fill="none" xmlns="http://www.w3.org/2000/svg">
<path d="M2.76667 146.633C4.29465 146.633 5.53333 145.395 5.53333 143.867C5.53333 142.339 4.29465 141.1 2.76667 141.1C1.23868 141.1 0 142.339 0 143.867C0 145.395 1.23868 146.633 2.76667 146.633Z" fill="#5A98D0"/>
<path d="M99.6 19.3667H79.7243C78.556 16.0623 75.4381 13.8479 71.9333 13.8333V8.3C71.9333 3.71604 68.2173 0 63.6333 0H47.0333C42.4494 0 38.7333 3.71604 38.7333 8.3V13.8333C35.2286 13.8479 32.1106 16.0623 30.9424 19.3667H11.0667C4.95472 19.3667 0 24.3214 0 30.4333V132.8C0 134.328 1.23868 135.567 2.76667 135.567C4.29465 135.567 5.53333 134.328 5.53333 132.8V30.4333C5.53333 27.3774 8.01069 24.9 11.0667 24.9H30.4333V30.4333H13.8333C12.3053 30.4333 11.0667 31.672 11.0667 33.2V152.167C11.0667 153.695 12.3053 154.933 13.8333 154.933H96.8333C98.3613 154.933 99.6 153.695 99.6 152.167V33.2C99.6 31.672 98.3613 30.4333 96.8333 30.4333H80.2333V24.9H99.6C102.656 24.9 105.133 27.3774 105.133 30.4333V154.933C105.133 157.989 102.656 160.467 99.6 160.467H11.0667C8.01069 160.467 5.53333 157.989 5.53333 154.933C5.53333 153.405 4.29465 152.167 2.76667 152.167C1.23868 152.167 0 153.405 0 154.933C0 161.045 4.95472 166 11.0667 166H99.6C105.712 166 110.667 161.045 110.667 154.933V30.4333C110.667 24.3214 105.712 19.3667 99.6 19.3667ZM44.2667 8.3C44.2667 6.77201 45.5053 5.53333 47.0333 5.53333H63.6333C65.1613 5.53333 66.4 6.77201 66.4 8.3V13.8333H44.2667V8.3ZM38.7333 19.3667H71.9333C73.4613 19.3667 74.7 20.6053 74.7 22.1333V33.2C74.7 34.728 73.4613 35.9667 71.9333 35.9667H38.7333C37.2053 35.9667 35.9667 34.728 35.9667 33.2V22.1333C35.9667 20.6053 37.2053 19.3667 38.7333 19.3667ZM94.0667 149.4H16.6V35.9667H30.9064C32.0832 39.2803 35.2169 41.4957 38.7333 41.5H71.9333C75.4497 41.4957 78.5834 39.2803 79.7602 35.9667H94.0667V149.4Z" fill="#5A98D0"/>
<path d="M44.2667 30.4334C45.7947 30.4334 47.0333 29.1947 47.0333 27.6667C47.0333 26.1387 45.7947 24.9 44.2667 24.9C42.7387 24.9 41.5 26.1387 41.5 27.6667C41.5 29.1947 42.7387 30.4334 44.2667 30.4334Z" fill="#5A98D0"/>
<path d="M66.4 30.4334C67.928 30.4334 69.1666 29.1947 69.1666 27.6667C69.1666 26.1387 67.928 24.9 66.4 24.9C64.872 24.9 63.6333 26.1387 63.6333 27.6667C63.6333 29.1947 64.872 30.4334 66.4 30.4334Z" fill="#5A98D0"/>
<path d="M60.8667 49.8H24.9C23.372 49.8 22.1333 51.0387 22.1333 52.5667C22.1333 54.0947 23.372 55.3334 24.9 55.3334H60.8667C62.3947 55.3334 63.6333 54.0947 63.6333 52.5667C63.6333 51.0387 62.3947 49.8 60.8667 49.8Z" fill="#5A98D0"/>
<path d="M24.9 66.4H47.0333C48.5613 66.4 49.8 65.1614 49.8 63.6334C49.8 62.1054 48.5613 60.8667 47.0333 60.8667H24.9C23.372 60.8667 22.1333 62.1054 22.1333 63.6334C22.1333 65.1614 23.372 66.4 24.9 66.4Z" fill="#5A98D0"/>
<path d="M60.8667 74.7H24.9C23.372 74.7 22.1333 75.9386 22.1333 77.4666C22.1333 78.9946 23.372 80.2333 24.9 80.2333H60.8667C62.3947 80.2333 63.6333 78.9946 63.6333 77.4666C63.6333 75.9386 62.3947 74.7 60.8667 74.7Z" fill="#5A98D0"/>
<path d="M24.9 91.2999H47.0333C48.5613 91.2999 49.8 90.0613 49.8 88.5333C49.8 87.0053 48.5613 85.7666 47.0333 85.7666H24.9C23.372 85.7666 22.1333 87.0053 22.1333 88.5333C22.1333 90.0613 23.372 91.2999 24.9 91.2999Z" fill="#5A98D0"/>
<path d="M60.8667 99.6H24.9C23.372 99.6 22.1333 100.839 22.1333 102.367C22.1333 103.895 23.372 105.133 24.9 105.133H60.8667C62.3947 105.133 63.6333 103.895 63.6333 102.367C63.6333 100.839 62.3947 99.6 60.8667 99.6Z" fill="#5A98D0"/>
<path d="M24.9 116.2H47.0333C48.5613 116.2 49.8 114.961 49.8 113.433C49.8 111.905 48.5613 110.667 47.0333 110.667H24.9C23.372 110.667 22.1333 111.905 22.1333 113.433C22.1333 114.961 23.372 116.2 24.9 116.2Z" fill="#5A98D0"/>
<path d="M60.8667 124.5H24.9C23.372 124.5 22.1333 125.739 22.1333 127.267C22.1333 128.795 23.372 130.033 24.9 130.033H60.8667C62.3947 130.033 63.6333 128.795 63.6333 127.267C63.6333 125.739 62.3947 124.5 60.8667 124.5Z" fill="#5A98D0"/>
<path d="M47.0333 135.567H24.9C23.372 135.567 22.1333 136.805 22.1333 138.333C22.1333 139.861 23.372 141.1 24.9 141.1H47.0333C48.5613 141.1 49.8 139.861 49.8 138.333C49.8 136.805 48.5613 135.567 47.0333 135.567Z" fill="#5A98D0"/>
<path d="M85.7667 58.1C84.2387 58.1 83 59.3387 83 60.8666V63.6333H71.9334C70.4054 63.6333 69.1667 64.872 69.1667 66.4C69.1667 67.928 70.4054 69.1666 71.9334 69.1666H83C86.056 69.1666 88.5334 66.6893 88.5334 63.6333V60.8666C88.5334 59.3387 87.2947 58.1 85.7667 58.1Z" fill="#5A98D0"/>
<path d="M83 74.7H74.7C71.644 74.7 69.1667 77.1773 69.1667 80.2333V88.5333C69.1667 91.5893 71.644 94.0666 74.7 94.0666H83C86.056 94.0666 88.5334 91.5893 88.5334 88.5333V80.2333C88.5334 77.1773 86.056 74.7 83 74.7ZM83 88.5333H74.7V80.2333H83V88.5333Z" fill="#5A98D0"/>
<path d="M83 99.6H74.7C71.644 99.6 69.1667 102.077 69.1667 105.133V113.433C69.1667 116.489 71.644 118.967 74.7 118.967H83C86.056 118.967 88.5334 116.489 88.5334 113.433V105.133C88.5334 102.077 86.056 99.6 83 99.6ZM83 113.433H74.7V105.133H83V113.433Z" fill="#5A98D0"/>
<path d="M83 124.5H74.7C71.644 124.5 69.1667 126.977 69.1667 130.033V138.333C69.1667 141.389 71.644 143.867 74.7 143.867H83C86.056 143.867 88.5334 141.389 88.5334 138.333V130.033C88.5334 126.977 86.056 124.5 83 124.5ZM83 138.333H74.7V130.033H83V138.333Z" fill="#5A98D0"/>
<path d="M76.6561 53.3773C75.5705 52.3288 73.8449 52.3438 72.7777 53.411C71.7105 54.4782 71.6955 56.2038 72.744 57.2894L75.5106 60.0561C76.0294 60.5749 76.733 60.8665 77.4667 60.8667H77.6189C78.4047 60.824 79.1352 60.4487 79.6275 59.8347L90.6941 46.0014C91.6491 44.808 91.4559 43.0664 90.2625 42.1115C89.0692 41.1565 87.3276 41.3497 86.3726 42.5431L77.2426 53.9639L76.6561 53.3773Z" fill="#5A98D0"/>
<path d="M149.295 29.9187C149.275 29.7222 149.234 29.5283 149.173 29.3405L137.752 3.05712C136.802 1.16041 134.851 -0.0260378 132.73 0.00283463C130.609 0.031707 128.691 1.27082 127.792 3.19269L116.43 29.3266C116.369 29.5145 116.328 29.7083 116.308 29.9049C116.254 30.077 116.218 30.254 116.2 30.4333V154.933C116.2 161.045 121.155 166 127.267 166H138.333C144.445 166 149.4 161.045 149.4 154.933V30.4333C149.382 30.2588 149.347 30.0864 149.295 29.9187ZM125.546 22.1333H140.01L142.414 27.6666H123.166L125.546 22.1333ZM132.8 66.4C131.272 66.4 130.033 67.6386 130.033 69.1666V124.5H121.733V33.2H130.033V58.1C130.033 59.6279 131.272 60.8666 132.8 60.8666C134.328 60.8666 135.567 59.6279 135.567 58.1V33.2H143.867V124.5H135.567V69.1666C135.567 67.6386 134.328 66.4 132.8 66.4ZM121.733 130.033H143.867V138.333H121.733V130.033ZM132.739 5.39772L137.606 16.6H127.922L132.739 5.39772ZM143.867 154.933C143.867 157.989 141.389 160.467 138.333 160.467H127.267C124.211 160.467 121.733 157.989 121.733 154.933V143.867H143.867V154.933Z" fill="#5A98D0"/>
</svg>
