<svg width="166" height="166" viewBox="0 0 166 166" fill="none" xmlns="http://www.w3.org/2000/svg">
<path d="M12.45 107.817C10.922 107.825 9.67651 106.593 9.6681 105.065C9.6597 103.537 10.8916 102.292 12.4195 102.284H12.45C13.978 102.284 15.2166 103.522 15.2166 105.05C15.2166 106.578 13.978 107.817 12.45 107.817Z" fill="#5A98D0"/>
<path d="M127.267 0.000140738C109.586 0.0137765 94.1592 11.998 89.7736 29.1256C85.388 46.2533 93.1572 64.1769 108.655 72.6859L95.057 102.367H80.2332C78.7053 102.367 77.4666 103.605 77.4666 105.133C77.4666 106.661 78.7053 107.9 80.2332 107.9H85.1717C79.6631 118.734 68.2311 125.247 56.1023 124.46C43.9735 123.673 33.4788 115.738 29.4164 104.283C25.3539 92.8273 28.5044 80.0533 37.4274 71.8006C37.8646 71.8421 38.2851 71.9334 38.7333 71.9334C41.6767 71.9247 44.5392 70.9692 46.8977 69.2082L50.2869 72.5974C49.7752 74.496 50.314 76.5235 51.7006 77.9177L55.6099 81.8297C57.7707 83.9899 61.2733 83.9899 63.4341 81.8297L65.3901 79.8737L71.2582 85.7418C72.2959 86.78 73.7037 87.3633 75.1716 87.3633C76.6395 87.3633 78.0473 86.78 79.0851 85.7418L86.9092 77.9177C87.9474 76.8799 88.5307 75.4722 88.5307 74.0042C88.5307 72.5363 87.9474 71.1285 86.9092 70.0908L81.0411 64.2227L82.9999 62.2667C85.16 60.1059 85.16 56.6033 82.9999 54.4425L79.0878 50.5305C77.6902 49.1399 75.6566 48.6009 73.7537 49.1167L34.0798 9.4068C31.9027 7.28461 28.4274 7.29568 26.2639 9.4317L18.4426 1.62141C17.4048 0.583221 15.9971 -6.10352e-05 14.5291 -6.10352e-05C13.0612 -6.10352e-05 11.6535 0.583221 10.6157 1.62141L2.79156 9.44553C1.75338 10.4833 1.1701 11.8911 1.1701 13.359C1.1701 14.8269 1.75338 16.2347 2.79156 17.2724L10.6129 25.0938C8.46017 27.2533 8.46017 30.7473 10.6129 32.9068L27.6334 49.9273C26.1377 51.9682 25.2356 54.3831 25.0272 56.9049C14.3978 66.3331 8.30978 79.8584 8.29999 94.0667C8.29999 95.5947 9.53867 96.8334 11.0667 96.8334C12.5946 96.8334 13.8333 95.5947 13.8333 94.0667C13.8313 82.7094 18.2002 71.787 26.0343 63.5642C27.1782 66.1795 29.1008 68.3784 31.54 69.8612C21.8797 80.4452 19.4301 95.7565 25.3062 108.826C31.1822 121.896 44.2609 130.226 58.5892 130.024C72.9175 129.823 85.7571 121.129 91.2639 107.9H100.153C95.9391 120.763 86.0627 130.985 73.3524 135.639C60.6421 140.293 46.4999 138.865 34.9762 131.765C33.2462 130.706 31.5831 129.54 29.9962 128.276C28.4527 126.964 26.9911 125.559 25.6193 124.068C22.8437 121.101 20.5054 117.753 18.675 114.125C17.9714 112.81 16.3683 112.265 15.0091 112.88C14.3266 113.19 13.8032 113.77 13.5636 114.48C13.324 115.191 13.3896 115.969 13.7448 116.629C15.8059 120.71 18.4355 124.478 21.5551 127.82C23.1015 129.498 24.7508 131.078 26.4936 132.551C28.2765 133.976 30.1467 135.288 32.0933 136.48C33.1502 137.149 34.2402 137.758 35.3469 138.333H22.1333C12.9692 138.342 5.54248 145.769 5.53333 154.933V160.467H2.76666C1.23868 160.467 0 161.705 0 163.233C0 164.761 1.23868 166 2.76666 166H113.433C114.961 166 116.2 164.761 116.2 163.233C116.2 161.705 114.961 160.467 113.433 160.467H110.667V154.933C110.657 145.769 103.231 138.342 94.0666 138.333H80.9277C93.1056 132.079 102.151 121.062 105.916 107.9H113.433C114.961 107.9 116.2 106.661 116.2 105.133C116.2 103.605 114.961 102.367 113.433 102.367H101.144L113.71 74.9767C128.223 80.4025 144.574 76.6523 155.272 65.4439C165.97 54.2356 168.954 37.7282 162.859 23.4833C156.763 9.23837 142.761 7.29544e-05 127.267 0.000140738ZM75.173 81.8297L69.3049 75.9616L77.1318 68.1348L82.9999 74.0056L75.173 81.8297ZM79.0906 58.3491L59.5275 77.9121L55.6099 74.0056L75.173 54.4425L79.0906 58.3491ZM6.70363 13.3576L14.5277 5.53347L22.3519 13.3548L14.525 21.1817L6.70363 13.3576ZM16.4672 27.0664H16.4838L22.3546 21.1845L30.1926 13.3548L69.2938 52.4837L53.6456 68.132L50.6023 65.0887C51.8745 62.9786 52.5532 60.564 52.5666 58.1001C52.5575 50.4639 46.3694 44.2759 38.7333 44.2668C36.2694 44.2801 33.8548 44.9588 31.7447 46.2311L14.5167 29.0141L16.4672 27.0664ZM38.7333 49.8001C43.3172 49.8001 47.0333 53.5161 47.0333 58.1001C47.0333 62.684 43.3172 66.4001 38.7333 66.4001C34.1493 66.4001 30.4333 62.684 30.4333 58.1001C30.4333 53.5161 34.1493 49.8001 38.7333 49.8001ZM94.0666 143.867C100.178 143.867 105.133 148.821 105.133 154.933V160.467H11.0667V154.933C11.0667 148.821 16.0214 143.867 22.1333 143.867H94.0666ZM127.267 71.9334C108.931 71.9334 94.0666 57.0693 94.0666 38.7334C94.0666 20.3976 108.931 5.53347 127.267 5.53347C145.602 5.53347 160.466 20.3976 160.466 38.7334C160.447 57.061 145.594 71.9136 127.267 71.9334Z" fill="#5A98D0"/>
<path d="M118.967 22.1333C120.494 22.1333 121.733 20.8946 121.733 19.3666C121.733 17.8387 120.494 16.6 118.967 16.6C117.439 16.6 116.2 17.8387 116.2 19.3666C116.2 20.8946 117.439 22.1333 118.967 22.1333Z" fill="#5A98D0"/>
<path d="M105.133 35.9666C106.661 35.9666 107.9 34.7279 107.9 33.2C107.9 31.672 106.661 30.4333 105.133 30.4333C103.605 30.4333 102.367 31.672 102.367 33.2C102.367 34.7279 103.605 35.9666 105.133 35.9666Z" fill="#5A98D0"/>
<path d="M127.267 66.3999C128.794 66.3999 130.033 65.1612 130.033 63.6332C130.033 62.1053 128.794 60.8666 127.267 60.8666C125.739 60.8666 124.5 62.1053 124.5 63.6332C124.5 65.1612 125.739 66.3999 127.267 66.3999Z" fill="#5A98D0"/>
<path d="M132.8 49.7999C134.328 49.7999 135.566 48.5613 135.566 47.0333C135.566 45.5053 134.328 44.2666 132.8 44.2666C131.272 44.2666 130.033 45.5053 130.033 47.0333C130.033 48.5613 131.272 49.7999 132.8 49.7999Z" fill="#5A98D0"/>
<path d="M107.9 52.5666C109.428 52.5666 110.667 51.3279 110.667 49.7999C110.667 48.2719 109.428 47.0333 107.9 47.0333C106.372 47.0333 105.133 48.2719 105.133 49.7999C105.133 51.3279 106.372 52.5666 107.9 52.5666Z" fill="#5A98D0"/>
<path d="M132.8 19.3666C134.328 19.3666 135.566 18.128 135.566 16.6C135.566 15.072 134.328 13.8333 132.8 13.8333C131.272 13.8333 130.033 15.072 130.033 16.6C130.033 18.128 131.272 19.3666 132.8 19.3666Z" fill="#5A98D0"/>
<path d="M149.4 47.0333C150.928 47.0333 152.166 45.7946 152.166 44.2666C152.166 42.7386 150.928 41.4999 149.4 41.4999C147.872 41.4999 146.633 42.7386 146.633 44.2666C146.633 45.7946 147.872 47.0333 149.4 47.0333Z" fill="#5A98D0"/>
<path d="M127.267 38.7333C127.267 34.1493 123.55 30.4333 118.967 30.4333C114.383 30.4333 110.667 34.1493 110.667 38.7333C110.667 43.3172 114.383 47.0333 118.967 47.0333C123.55 47.0333 127.267 43.3172 127.267 38.7333ZM118.967 41.4999C117.439 41.4999 116.2 40.2613 116.2 38.7333C116.2 37.2053 117.439 35.9666 118.967 35.9666C120.495 35.9666 121.733 37.2053 121.733 38.7333C121.733 40.2613 120.495 41.4999 118.967 41.4999Z" fill="#5A98D0"/>
<path d="M149.4 30.4333C149.4 25.8493 145.684 22.1333 141.1 22.1333C136.516 22.1333 132.8 25.8493 132.8 30.4333C132.8 35.0172 136.516 38.7333 141.1 38.7333C145.684 38.7333 149.4 35.0172 149.4 30.4333ZM141.1 33.2C139.572 33.2 138.333 31.9613 138.333 30.4333C138.333 28.9053 139.572 27.6666 141.1 27.6666C142.628 27.6666 143.866 28.9053 143.866 30.4333C143.866 31.9613 142.628 33.2 141.1 33.2Z" fill="#5A98D0"/>
</svg>
