<svg width="166" height="166" viewBox="0 0 166 166" fill="none" xmlns="http://www.w3.org/2000/svg">
<path d="M17.3387 111.571C15.8107 111.58 14.5652 110.348 14.5568 108.82C14.5484 107.292 15.7803 106.046 17.3083 106.038H17.3387C18.8667 106.038 20.1054 107.277 20.1054 108.805C20.1054 110.333 18.8667 111.571 17.3387 111.571Z" fill="#5A98D0"/>
<path d="M130.003 91.1949C130.138 87.674 129.426 84.1722 127.928 80.9831C123.553 71.0038 115.15 63.3488 104.807 59.9205C100.049 58.4118 94.9943 58.088 90.0827 58.9771C81.922 49.0671 71.0548 41.7451 58.8055 37.9034C55.6681 36.9599 46.1176 34.0882 43.4339 39.5634C42.4701 42.1675 43.006 45.0901 44.8311 47.1828C43.3415 47.2591 41.9034 47.7528 40.6811 48.6076C39.6214 49.3823 36.4785 52.3675 40.5206 58.266C47.2436 67.9826 60.2303 71.0895 70.6773 73.5878L71.2832 73.7317C71.8863 73.8756 72.4839 73.9918 73.0815 74.1273C73.004 74.4206 72.9017 74.6973 72.8353 74.9961C72.482 76.5772 72.2782 78.188 72.2266 79.8073C68.5552 83.83 63.2349 85.2134 56.3653 83.83C49.7348 82.5442 42.8723 83.2419 36.6362 85.8359C30.5283 88.4572 25.1583 92.5398 20.999 97.7242C20.5027 98.2963 20.27 99.0507 20.358 99.8029C20.4459 100.555 20.8462 101.236 21.461 101.678C22.6572 102.534 24.308 102.343 25.2763 101.235C28.8618 96.7548 33.4935 93.2243 38.7638 90.9542C43.9832 88.7815 49.727 88.1945 55.278 89.2665C57.2626 89.676 59.2829 89.8882 61.3093 89.9001C65.4655 89.9957 69.5495 88.8031 73.0013 86.486C73.5288 88.4409 74.3567 90.302 75.4553 92.0028C82.3913 102.638 95.035 104.818 103.399 104.99C103.845 106.345 104.07 107.764 104.065 109.192C104.056 110.139 103.898 111.079 103.598 111.978L103.451 112.368C102.706 114.306 101.726 116.146 100.535 117.846C98.2348 120.808 96.9468 124.43 96.861 128.18C97.247 132.935 98.481 137.582 100.505 141.902C100.906 142.943 101.335 143.911 101.811 145.009L101.935 145.286C102.035 145.529 102.137 145.765 102.19 145.864C103.36 148.518 105.503 150.624 108.177 151.749L116.43 155.304C117.068 155.578 117.617 156.024 118.015 156.593C118.5 157.25 118.762 158.045 118.762 158.862C118.76 159.319 118.557 159.751 118.209 160.046C117.934 160.322 117.558 160.474 117.168 160.467H103.418C102.059 160.46 100.804 159.736 100.117 158.563L80.1227 123.98C80.1076 123.957 80.091 123.934 80.0729 123.913C79.6493 122.947 79.1134 122.035 78.4765 121.194C74.2933 115.602 65.8245 112.263 55.8203 112.263C54.2923 112.263 53.0536 113.502 53.0536 115.03C53.0536 116.558 54.2923 117.796 55.8203 117.796C63.8436 117.796 70.9954 120.43 74.0526 124.519C74.4939 125.092 74.8585 125.72 75.1371 126.387C76.0586 128.799 76.0467 131.467 75.1039 133.871C71.4104 144.937 53.8006 145.126 53.6235 145.126C52.6351 145.117 51.717 145.636 51.2151 146.487C50.7132 147.339 50.7037 148.394 51.1902 149.254C51.6767 150.114 52.5853 150.65 53.5737 150.659H53.6291C81.3566 150.659 86.8789 157.47 87.9579 160.461H38.2934C32.0629 160.461 23.5333 160.461 23.5333 158.848C23.7492 157.302 24.1276 155.783 24.6621 154.316C25.7992 150.67 27.0884 146.537 26.0786 143.23C25.4739 141.057 23.7981 139.344 21.6381 138.693C17.7371 137.401 15.9581 136.809 16.149 128.882C16.2127 126.434 16.4727 123.451 16.9403 119.752C17.0643 118.771 16.6556 117.799 15.868 117.201C15.0805 116.603 14.0337 116.47 13.1221 116.854C12.2105 117.237 11.5725 118.077 11.4485 119.058C11.075 122.016 10.8287 124.553 10.7042 126.766C7.61772 127.813 4.85404 129.64 2.68089 132.07C-0.0490693 135.427 -0.786802 139.983 0.744227 144.03C2.01052 147.943 5.28936 150.869 9.32089 151.683C10.1041 151.825 10.8986 151.897 11.6947 151.896C14.7185 151.797 17.6728 150.964 20.3018 149.466C20.0251 150.573 19.6682 151.68 19.3611 152.667C18.6142 154.651 18.1485 156.73 17.9778 158.843C17.9999 166 26.0731 166 38.2934 166H88.7104C90.1997 166.001 91.6105 165.332 92.5532 164.179C93.4959 163.027 93.8707 161.511 93.5742 160.052C92.5201 154.795 87.4875 148.755 71.1642 146.279C75.469 144.028 78.7538 140.221 80.3495 135.633C80.3661 135.586 80.3717 135.542 80.3855 135.495L95.3255 161.333C97.0028 164.215 100.083 165.992 103.418 166H117.168C119.03 166.021 120.82 165.283 122.126 163.955C123.525 162.631 124.314 160.788 124.306 158.862C124.305 156.857 123.662 154.905 122.469 153.293C121.482 151.932 120.143 150.866 118.596 150.208L110.351 146.655C108.929 146.055 107.795 144.925 107.189 143.504L106.78 142.558C106.428 141.758 106.035 140.868 105.645 139.858C103.919 136.173 102.82 132.226 102.394 128.18C102.495 125.503 103.466 122.931 105.161 120.856C106.58 118.822 107.741 116.619 108.619 114.299C108.691 114.122 108.76 113.942 108.827 113.746C109.3 112.317 109.555 110.825 109.582 109.319C109.6 107.815 109.431 106.314 109.079 104.851C113.091 104.675 117.052 103.874 120.818 102.477C125.867 100.901 129.483 96.4586 130.003 91.1949ZM10.3363 146.252C8.25833 145.781 6.59385 144.23 5.97876 142.19C5.11025 140.005 5.46736 137.523 6.91666 135.672C7.992 134.474 9.29198 133.498 10.743 132.8C10.6788 137.98 14.2117 142.514 19.2505 143.717C16.6768 145.599 13.5149 146.498 10.3363 146.252ZM57.2147 43.1988C67.6617 46.4586 77.016 52.5184 84.2616 60.7201C82.6068 61.4412 81.061 62.3901 79.6689 63.5393C72.4855 56.7834 63.8519 51.7602 54.4286 48.8538L54.2045 48.7819C51.6185 47.217 49.5996 44.8675 48.4416 42.0755C48.9894 41.8763 51.1667 41.3811 57.2147 43.1988ZM72.5669 68.3533L71.9665 68.2094C62.4464 65.9325 50.5996 63.0966 45.0884 55.1314C44.6425 54.4866 44.2712 53.7933 43.9817 53.0647C45.5089 51.9304 50.1348 53.3248 52.1323 53.9307L52.207 53.95C52.4228 54.0247 52.6303 54.0884 52.8378 54.152C61.4724 56.8209 69.3802 61.434 75.9533 67.6367C75.6766 68.0462 75.4442 68.4916 75.198 68.926C74.3182 68.7379 73.4412 68.5608 72.5669 68.3533ZM105.814 99.4562C105.656 99.4562 105.479 99.4562 105.316 99.4562C98.272 99.5779 86.1789 98.2886 80.1033 88.9705C77.786 85.1355 77.1175 80.5266 78.2496 76.1913C79.1725 71.1304 82.7571 66.9627 87.6231 65.2934C88.2539 65.0813 88.8893 64.8968 89.5293 64.74C89.6697 64.7227 89.8085 64.694 89.9443 64.6543C91.7578 64.227 93.6145 64.0098 95.4777 64.0069C98.0824 64.0117 100.671 64.4129 103.155 65.1965C111.954 68.1939 119.101 74.7287 122.873 83.2241C124.011 85.6106 124.562 88.2343 124.481 90.8767C124.019 93.9663 121.783 96.4951 118.773 97.3314C114.607 98.776 110.223 99.4947 105.814 99.4562Z" fill="#5A98D0"/>
<path d="M107.9 74.7C103.316 74.7 99.6 78.416 99.6 83C99.6 87.584 103.316 91.3 107.9 91.3C112.484 91.3 116.2 87.584 116.2 83C116.2 78.416 112.484 74.7 107.9 74.7ZM107.9 85.7667C106.372 85.7667 105.133 84.528 105.133 83C105.133 81.472 106.372 80.2333 107.9 80.2333C109.428 80.2333 110.667 81.472 110.667 83C110.667 84.528 109.428 85.7667 107.9 85.7667Z" fill="#5A98D0"/>
<path d="M153.763 112.7L153.807 112.656L153.832 112.631C157.164 109.357 159.857 105.49 161.773 101.23C161.985 100.937 162.136 100.605 162.215 100.253C165.19 93.8867 166.437 86.8496 165.831 79.8488C165.41 75.3804 164.379 70.9905 162.769 66.8012C162.569 66.353 162.359 65.8937 162.141 65.4178C162.118 65.3597 162.088 65.3072 162.06 65.2491C160.05 60.8437 157.274 56.8306 153.86 53.3967C149.92 49.4168 145.214 46.2771 140.027 44.1671C144.731 42.0073 148.993 38.9921 152.596 35.275C152.673 35.2031 152.748 35.1367 152.82 35.0564C156.129 31.5941 158.893 27.6501 161.02 23.359C161.063 23.2854 161.101 23.2096 161.136 23.1321C164.298 16.8066 165.962 9.83836 166 2.76667C166 1.23868 164.761 0 163.233 0C161.705 0 160.467 1.23868 160.467 2.76667C160.453 4.61887 160.31 6.46786 160.038 8.3H100.029C99.7565 6.46788 99.6132 4.61888 99.6 2.76667C99.6 1.23868 98.3614 0 96.8334 0C95.3054 0 94.0667 1.23868 94.0667 2.76667C94.1059 9.81108 95.7603 16.7526 98.9028 23.0574C98.9645 23.2126 99.0405 23.3617 99.1297 23.5028C101.238 27.7077 103.961 31.5755 107.208 34.979C107.309 35.0956 107.42 35.203 107.54 35.2999C111.136 38.9998 115.387 42.0015 120.076 44.1532C115.929 45.827 112.085 48.1681 108.694 51.0837C107.537 52.0815 107.407 53.8287 108.405 54.9861C109.403 56.1436 111.15 56.273 112.307 55.2752C117.334 50.9373 123.474 48.0928 130.033 47.0638C135.074 47.8741 139.885 49.7501 144.143 52.5667H121.733C120.205 52.5667 118.967 53.8053 118.967 55.3333C118.967 56.8613 120.205 58.1 121.733 58.1H150.673C152.282 59.7907 153.71 61.6452 154.933 63.6333H128.484C126.956 63.6333 125.717 64.872 125.717 66.4C125.717 67.928 126.956 69.1667 128.484 69.1667H157.791C158.451 70.9777 159.005 72.8252 159.451 74.7H135.456C133.928 74.7 132.689 75.9387 132.689 77.4667C132.689 78.9947 133.928 80.2333 135.456 80.2333H160.356V80.3772C160.568 82.1668 160.579 83.9745 160.389 85.7667H138.278C136.75 85.7667 135.511 87.0053 135.511 88.5333C135.511 90.0613 136.75 91.3 138.278 91.3H159.485C159.007 93.1846 158.399 95.0336 157.664 96.8333H136.12C134.592 96.8333 133.353 98.072 133.353 99.6C133.353 101.128 134.592 102.367 136.12 102.367H154.989C153.781 104.376 152.336 106.234 150.687 107.9H124.5C122.972 107.9 121.733 109.139 121.733 110.667C121.733 112.195 122.972 113.433 124.5 113.433H144.171C139.912 116.268 135.088 118.147 130.033 118.939C125.732 118.286 121.592 116.827 117.832 114.637C116.519 113.95 114.897 114.42 114.155 115.704C113.413 116.987 113.814 118.628 115.066 119.423C116.668 120.339 118.332 121.143 120.046 121.83C116.164 123.579 112.579 125.924 109.422 128.78C108.286 129.803 108.195 131.553 109.218 132.688C110.241 133.823 111.991 133.914 113.126 132.891C117.839 128.527 123.715 125.623 130.044 124.53C134.825 125.327 139.358 127.209 143.297 130.033H121.733C120.205 130.033 118.967 131.272 118.967 132.8C118.967 134.328 120.205 135.567 121.733 135.567H149.53C151.113 137.28 152.54 139.132 153.794 141.1H130.033C128.505 141.1 127.267 142.339 127.267 143.867C127.267 145.395 128.505 146.633 130.033 146.633H156.795C157.617 148.424 158.303 150.274 158.848 152.167H132.164C130.636 152.167 129.397 153.405 129.397 154.933C129.397 156.461 130.636 157.7 132.164 157.7H160.013C160.302 159.531 160.454 161.38 160.467 163.233C160.467 164.761 161.705 166 163.233 166C164.761 166 166 164.761 166 163.233C166.007 160.267 165.702 157.308 165.09 154.405C164.293 150.315 162.93 146.357 161.039 142.644C158.921 138.309 156.124 134.341 152.753 130.888L152.72 130.863V130.847C149.134 127.073 144.857 124.022 140.121 121.861C145.239 119.757 149.879 116.641 153.763 112.7ZM149.608 30.4333H110.456C108.889 28.712 107.47 26.8609 106.215 24.9H153.846C152.592 26.8609 151.174 28.7119 149.608 30.4333ZM143.283 35.9667C139.344 38.7771 134.82 40.6593 130.05 41.4723C125.267 40.6657 120.73 38.7831 116.781 35.9667H143.283ZM158.862 13.8333C158.329 15.7223 157.663 17.5714 156.87 19.3667H103.197C102.399 17.5717 101.728 15.7227 101.191 13.8333H158.862Z" fill="#5A98D0"/>
</svg>
