<svg width="158" height="166" viewBox="0 0 158 166" fill="none" xmlns="http://www.w3.org/2000/svg">
<path d="M17.662 91.1947C16.134 91.2024 14.8892 89.9699 14.8815 88.4419C14.8739 86.9139 16.1064 85.669 17.6344 85.6614H17.662C19.19 85.6614 20.4287 86.9001 20.4287 88.4281C20.4287 89.956 19.19 91.1947 17.662 91.1947Z" fill="#5A98D0"/>
<path d="M10.2557 25.9067C8.09555 28.0675 8.09555 31.5701 10.2557 33.7309L22.3156 45.7908C16.7767 55.4099 13.8522 66.3113 13.833 77.4111C13.833 78.9391 15.0717 80.1778 16.5996 80.1778C18.1276 80.1778 19.3663 78.9391 19.3663 77.4111C19.377 67.7834 21.7834 58.3097 26.3688 49.844L33.0088 56.484C32.2393 58.8419 32.0561 61.3517 32.4748 63.7963C31.1237 68.2084 30.4356 72.7968 30.433 77.4111C30.4637 89.6355 35.2156 101.376 43.6964 110.18C41.0265 112.855 38.7975 115.936 37.0924 119.31C30.9399 113.353 26.1826 106.108 23.1622 98.0948C22.6 96.7138 21.0659 96.0023 19.6485 96.4652C18.9347 96.6995 18.3504 97.22 18.0356 97.9022C17.7207 98.5843 17.7037 99.3667 17.9885 100.062C21.5724 109.524 27.3575 117.997 34.8652 124.779C33.7659 128.27 33.2043 131.907 33.1997 135.567V138.582C25.2225 139.938 19.3813 146.842 19.3663 154.933V160.467H16.5996C15.0717 160.467 13.833 161.705 13.833 163.233C13.833 164.761 15.0717 166 16.5996 166H154.933C156.461 166 157.7 164.761 157.7 163.233C157.7 161.705 156.461 160.467 154.933 160.467H152.167V154.933C152.157 145.769 144.731 138.342 135.567 138.333H132.8V127.267H135.567C138.623 127.267 141.1 124.789 141.1 121.733V116.2C141.1 113.144 138.623 110.667 135.567 110.667H132.172C131.641 107.455 130.677 104.33 129.308 101.376C129.283 101.312 129.256 101.257 129.225 101.196C129.098 100.92 128.993 100.643 128.857 100.366C126.482 95.3871 122.692 91.2177 117.962 88.3782C122.283 86.1675 125.908 82.8034 128.434 78.6589C128.459 78.6091 128.498 78.5704 128.52 78.5206C134.071 69.4227 134.233 58.0254 128.943 48.7733C128.875 48.6413 128.798 48.5146 128.711 48.3943C126.284 44.2522 122.776 40.8484 118.563 38.5477C123.008 35.7014 126.571 31.6702 128.849 26.9083C128.987 26.6316 129.095 26.3549 129.225 26.0783C129.256 26.0174 129.283 25.9565 129.308 25.8929C131.036 22.1734 132.127 18.1903 132.537 14.1096C132.669 13.1093 132.246 12.1164 131.434 11.5186C130.621 10.9207 129.547 10.8127 128.631 11.2368C127.716 11.6609 127.104 12.5497 127.034 13.5563C126.738 16.4996 126.031 19.3867 124.931 22.133H96.4016C95.3031 19.3865 94.5953 16.4995 94.2989 13.5563C94.2293 12.5497 93.6172 11.6609 92.7016 11.2368C91.7861 10.8127 90.7123 10.9207 89.8995 11.5186C89.0867 12.1164 88.6638 13.1093 88.796 14.1096C89.2054 18.1877 90.2968 22.1681 92.0247 25.8846C92.0496 25.9482 92.0773 26.0036 92.1077 26.0644C92.235 26.3411 92.3401 26.6178 92.4757 26.8944C94.7592 31.6593 98.3262 35.6929 102.776 38.5421C98.5601 40.8439 95.0501 44.2497 92.6223 48.3943C92.5348 48.5161 92.4571 48.6447 92.3899 48.7788C87.1002 58.028 87.2624 69.4229 92.8132 78.5178C92.841 78.5692 92.8715 78.619 92.9045 78.6672C95.4323 82.8101 99.0577 86.1722 103.379 88.381C98.6507 91.215 94.8614 95.3786 92.484 100.352C92.3456 100.629 92.2377 100.906 92.1077 101.182C92.0773 101.243 92.0496 101.304 92.0247 101.368C90.6547 104.324 89.6914 107.452 89.1612 110.667H85.7665C82.7105 110.667 80.2331 113.144 80.2331 116.2V121.733C80.2331 124.789 82.7105 127.267 85.7665 127.267H88.5331V138.333H71.9331V113.433C71.9377 109.423 69.9354 105.676 66.5986 103.452C63.2617 101.227 59.0332 100.82 55.3331 102.367C52.6974 103.47 50.2012 104.88 47.8963 106.569C38.7903 97.3405 34.5336 84.379 36.3952 71.5485C36.4948 71.6537 36.564 71.7782 36.6719 71.8805C39.5237 74.7359 43.3959 76.3369 47.4314 76.3294C49.0094 76.3071 50.5744 76.0411 52.0712 75.5409L57.2144 80.6869C59.3752 82.847 62.8778 82.847 65.0386 80.6869L68.9506 84.6017C72.1959 87.8346 77.4444 87.8346 80.6896 84.6017L84.6045 80.6896C86.1613 79.133 87.036 77.0217 87.036 74.8201C87.036 72.6186 86.1613 70.5072 84.6045 68.9506L80.6924 65.0386C82.8525 62.8778 82.8525 59.3752 80.6924 57.2144L33.7309 10.2557C31.5701 8.09555 28.0675 8.09555 25.9067 10.2557L18.0826 2.43152C16.526 0.874657 14.4146 0 12.2131 0C10.0115 0 7.90019 0.874657 6.34359 2.43152L2.43152 6.34359C0.874657 7.90019 0 10.0115 0 12.2131C0 14.4146 0.874657 16.526 2.43152 18.0826L10.2557 25.9067ZM146.633 154.933V160.467H24.8997V154.933C24.8997 148.821 29.8544 143.867 35.9664 143.867H135.567C141.679 143.867 146.633 148.821 146.633 154.933ZM96.6146 52.5664H124.718C126.024 55.1621 126.841 57.9754 127.131 60.8664H94.2076C94.4954 57.9758 95.3112 55.1625 96.6146 52.5664ZM94.2851 66.3998H127.048C126.681 69.3085 125.774 72.1232 124.375 74.6998H96.9577C95.5589 72.1232 94.6525 69.3085 94.2851 66.3998ZM99.3647 27.6663H121.971C119.387 31.751 115.345 34.6989 110.667 35.911C105.993 34.6886 101.956 31.7432 99.3647 27.6663ZM110.667 41.5384C114.52 42.2811 118.048 44.2008 120.765 47.0331H100.568C103.285 44.2008 106.813 42.2811 110.667 41.5384ZM101.224 80.2331H120.109C117.489 82.7134 114.211 84.39 110.667 85.0637C107.122 84.39 103.845 82.7134 101.224 80.2331ZM110.667 91.3552C115.345 92.5671 119.386 95.5151 121.968 99.5998H99.3647C101.955 95.5222 105.993 92.5766 110.667 91.3552ZM96.4016 105.133H124.931C125.651 106.922 126.199 108.775 126.569 110.667H94.7526C95.1269 108.774 95.679 106.922 96.4016 105.133ZM85.7665 116.2H135.567V121.733H85.7665V116.2ZM94.0665 127.267H127.267V138.333H94.0665V127.267ZM57.4745 107.468C59.4664 106.64 61.7405 106.862 63.5341 108.061C65.3277 109.26 66.4032 111.276 66.3998 113.433L66.3998 138.333H38.733L38.733 135.567C38.7127 123.269 46.113 112.174 57.4745 107.468ZM40.5784 67.9685C36.7971 64.1868 36.7973 58.0558 40.5789 54.2744C44.3604 50.4929 50.4914 50.4929 54.273 54.2744C58.0545 58.0558 58.0547 64.1868 54.2734 67.9685C50.4886 71.7429 44.3632 71.7429 40.5784 67.9685ZM80.6952 72.8572C81.2147 73.3761 81.5066 74.0803 81.5066 74.8146C81.5066 75.5489 81.2147 76.2531 80.6952 76.772L76.7831 80.6841C76.2641 81.2036 75.56 81.4955 74.8257 81.4955C74.0914 81.4955 73.3872 81.2036 72.8682 80.6841L68.9451 76.772L76.772 68.9451L80.6952 72.8572ZM29.8188 14.1677L76.772 61.1182L74.816 63.077L63.0798 74.816L61.1265 76.7692L57.1148 72.7576C57.4717 72.4615 57.8563 72.2042 58.191 71.8778C62.0361 68.0328 63.5377 62.4285 62.1303 57.1761C60.723 51.9237 56.6204 47.8211 51.368 46.4138C46.1156 45.0064 40.5113 46.508 36.6663 50.3531C36.3316 50.6878 36.0853 51.0724 35.7865 51.4293L14.1677 29.8188L29.8188 14.1677ZM6.34359 10.2557L10.2557 6.34359C10.7746 5.82407 11.4788 5.53216 12.2131 5.53216C12.9474 5.53216 13.6516 5.82407 14.1705 6.34359L21.9947 14.1677L14.1677 21.9947L6.34359 14.1705C5.82407 13.6516 5.53216 12.9474 5.53216 12.2131C5.53216 11.4788 5.82407 10.7746 6.34359 10.2557Z" fill="#5A98D0"/>
<path d="M52.5664 124.5C54.0944 124.5 55.3331 123.261 55.3331 121.733C55.3331 120.205 54.0944 118.967 52.5664 118.967C51.0384 118.967 49.7997 120.205 49.7997 121.733C49.7997 123.261 51.0384 124.5 52.5664 124.5Z" fill="#5A98D0"/>
</svg>
